<?xml version="1.0" encoding="utf-8"?>
<!-- Generator: Adobe Illustrator 25.4.1, SVG Export Plug-In . SVG Version: 6.00 Build 0)  -->
<svg version="1.1" id="Layer_1" xmlns="http://www.w3.org/2000/svg" xmlns:xlink="http://www.w3.org/1999/xlink" x="0px" y="0px"
	 viewBox="0 0 500 500" style="enable-background:new 0 0 500 500;" xml:space="preserve">
<style type="text/css">
	.st0{fill:#F54A06;}
</style>
<path class="st0" d="M413.5,86.5c-90.3-90.3-236.7-90.3-327,0s-90.3,236.7,0,327s236.7,90.3,327,0S503.8,176.8,413.5,86.5z
	 M363.7,190.2c5.8-6.2,13.4-9.1,23.6-9.1c4.4,0,9.1,1.1,13.8,2.2c0.7,0.4,1.5,1.1,1.8,1.5c0.4,0.4,0.7,1.5,0.7,2.5v3.6
	c0,1.8-0.7,2.5-1.8,2.5c-0.7,0-1.1,0-2.2-0.4c-3.3-1.1-6.9-1.5-10.5-1.5c-7.3,0-12.3,1.8-15.6,5.4c-3.3,3.6-4.7,9.4-5.1,17.4v1.8
	c0,7.6,1.5,13.4,4.7,17c3.3,3.6,8.3,5.4,15.2,5.4c3.6,0,7.6-0.7,11.6-1.8c0.7-0.4,1.5-0.4,1.8-0.4c1.1,0,1.8,0.7,1.8,2.5v3.6
	c0,1.1,0,2.2-0.4,2.5c-0.4,0.7-1.1,1.1-2.2,1.5c-4,1.8-9.1,2.5-14.5,2.5c-10.2,0-17.8-2.9-23.2-8.7c-5.4-5.8-8-14.1-8-25
	C355.3,204.7,358.2,196,363.7,190.2z M329.6,157.9c1.5-1.5,3.3-2.2,5.8-2.2c2.5,0,4.7,0.7,6.2,2.2c1.5,1.1,1.8,3.3,1.8,5.4
	c0,2.2-0.7,4-2.2,5.4c-1.5,1.5-3.3,2.2-5.8,2.2c-2.5,0-4.4-0.7-5.8-2.2c-1.5-1.1-2.2-3.3-2.2-5.4
	C327.4,161.1,328.1,159.3,329.6,157.9z M341.9,185.1v60.2c0,1.8-0.7,2.5-2.5,2.5h-7.6c-1.8,0-2.5-0.7-2.5-2.5v-60.2
	c0-1.8,0.7-2.5,2.5-2.5h7.6C341.2,182.5,341.9,183.6,341.9,185.1z M270.8,238.8c0-1.5,0.4-2.2,1.5-2.2c0.7,0,1.8,0.4,3.3,0.7
	c5.8,1.8,11.6,2.5,17.8,2.5c4,0,7.3-1.1,9.4-2.5c2.2-1.5,3.3-4,3.3-6.9c0-2.2-0.4-3.6-1.8-5.1c-1.5-1.5-3.6-2.5-7.3-4l-10.9-4
	c-9.4-3.6-14.1-9.8-14.1-18.1c0-5.4,2.2-10.2,6.5-13.4c4.4-3.3,10.2-5.1,17-5.1c5.4,0,10.9,1.1,16.3,2.9c1.1,0.4,1.8,0.7,2.2,1.5
	c0.4,0.7,0.7,1.5,0.7,2.5v3.6c0,1.5-0.7,2.2-1.8,2.2c-0.4,0-1.5-0.4-2.9-0.7c-4.4-1.5-9.1-2.2-13.8-2.2c-8.3,0-12.3,2.9-12.3,8.3
	c0,2.5,0.7,4,2.2,5.4c1.1,1.5,4,2.9,8,4.4l10.2,4c5.1,1.8,8.7,4.4,10.9,6.9c2.2,2.9,3.3,6.2,3.3,10.5c0,6.2-2.2,10.9-6.9,14.5
	c-4.7,3.6-10.5,5.4-18.1,5.4c-7.3,0-13.8-1.1-19.6-3.6c-1.1-0.4-1.8-1.1-2.2-1.5c-0.4-0.7-0.7-1.5-0.7-2.5V238.8z M203.4,185.1
	c0-1.8,0.7-2.5,2.5-2.5h7.6c1.8,0,2.5,0.7,2.5,2.5v41c0,4.7,0.7,8,2.5,10.2c1.8,2.2,4.7,3.3,8.7,3.3c6.2,0,12.3-2.2,18.5-6.2v-48.2
	c0-1.5,0.7-2.5,2.9-2.5h7.6c1.8,0,2.5,0.7,2.5,2.5v59.8c0,1.8-0.7,2.5-2.5,2.5h-5.4c-1.1,0-1.8,0-2.2-0.4c-0.7-0.4-1.1-0.7-1.1-1.8
	l-0.7-4.4c-8,5.8-16.3,8.7-24.7,8.7c-6.2,0-10.9-1.8-14.1-5.1c-3.3-3.3-4.7-8.3-4.7-14.5V185.1z M90.9,185.4c0-1.8,0.7-2.5,2.5-2.5
	l5.8,0c0.7,0,1.5,0,1.8,0.4c0.7,0.4,1.1,0.7,1.1,1.8l0.7,4c8-5.4,16-8.3,23.9-8.3c8,0,13.4,2.9,16.3,9.1c8.3-6.2,17-9.1,25.4-9.1
	c6.2,0,10.5,1.8,13.8,5.1c3.3,3.3,4.7,8,4.7,14.1v45.3c0,1.8-0.7,2.5-2.5,2.5h-7.6c-1.8,0-2.5-0.7-2.5-2.5v-41.7
	c0-4.4-1.1-7.3-2.5-9.4c-1.5-2.2-4-3.3-7.6-3.3c-6.2,0-12.3,1.8-18.9,5.8c0,0.4,0,1.1,0,1.8v2.2v44.6c0,1.8-0.7,2.5-2.5,2.5h-7.6
	c-1.8,0-2.5-0.7-2.5-2.5v-41.7c0-4.4-1.1-7.3-2.5-9.4c-1.5-2.2-4-3.3-7.6-3.3c-6.5,0-12.7,2.2-18.9,5.8v49c0,1.8-0.7,2.5-2.5,2.5
	h-7.6c-1.8,0-2.5-0.7-2.5-2.5V185.4z M379.6,304.4c-35.2,26.1-86.3,39.9-130.6,39.9c-61.7,0-117.5-22.8-159.6-60.9
	c-2.5-2.5-1.1-5.4,1.5-5.4c0.7,0,1.5,0.4,2.2,0.7c45.3,26.5,101.5,42.4,159.6,42.4c39.2,0,82.3-8.3,121.9-25
	C380.7,293.5,385.8,300,379.6,304.4z M389.8,330.2c-3.3,2.2-5.8,1.1-4.7-2.2c4.4-10.5,13.8-34.5,9.4-40.3
	c-4.7-5.8-30.1-2.9-41.3-1.5c-3.3,0.4-4-2.5-0.7-4.7c10.5-7.3,24.3-9.8,35.9-9.8c10.9,0,19.6,2.2,21.4,4.4
	C413.7,281.2,408.6,314.2,389.8,330.2z"/>
</svg>
