<?xml version="1.0" encoding="utf-8"?>
<!-- Generator: Adobe Illustrator 25.4.1, SVG Export Plug-In . SVG Version: 6.00 Build 0)  -->
<svg version="1.1" id="Layer_1" xmlns="http://www.w3.org/2000/svg" xmlns:xlink="http://www.w3.org/1999/xlink" x="0px" y="0px"
	 viewBox="0 0 500 500" style="enable-background:new 0 0 500 500;" xml:space="preserve">
<style type="text/css">
	.st0{fill:#FF0000;}
	.st1{fill:#F54A06;}
</style>
<path class="st0" d="M250,481.2"/>
<path class="st1" d="M250,18.8C122.3,18.8,18.8,122.3,18.8,250c0,122.6,95.4,222.9,216.1,230.7c-7.2-0.5-14.3-1.3-21.2-2.4V311.5
	H153V251h60.6v-55.9c0-56.4,33.3-89.6,83.6-89.6c24.1,0,49.8,5.6,49.8,5.6v61h-40.5c-27.3,0-32.4,13.6-32.4,32.6v46.2h70.1
	l-9.9,60.5H274V480c-8,0.8-16,1.2-24,1.2c127.7,0,231.1-103.5,231.1-231.2S377.7,18.8,250,18.8z"/>
</svg>
