<?xml version="1.0" encoding="utf-8"?>
<!-- Generator: Adobe Illustrator 25.4.1, SVG Export Plug-In . SVG Version: 6.00 Build 0)  -->
<svg version="1.1" id="Layer_1" xmlns="http://www.w3.org/2000/svg" xmlns:xlink="http://www.w3.org/1999/xlink" x="0px" y="0px"
	 viewBox="0 0 500 500" style="enable-background:new 0 0 500 500;" xml:space="preserve">
<style type="text/css">
	.st0{fill:#F5C454;}
</style>
<path class="st0" d="M250,19.5C122.7,19.5,19.5,122.7,19.5,250S122.7,480.5,250,480.5S480.5,377.3,480.5,250S377.3,19.5,250,19.5z
	 M355.7,350.5c-3.8,6.5-12.1,8.6-18.6,4.9c-85.6-50.2-198.8-21.2-199.9-20.9c-7.3,1.9-14.7-2.4-16.6-9.7s2.4-14.7,9.7-16.6
	c1.3-0.3,31.7-8.2,73.9-9.4c56.4-1.6,107.1,9.9,146.7,33.1C357.4,335.6,359.5,344,355.7,350.5z M383.5,287.9
	c-5.5,9.1-17.3,11.9-26.3,6.5c-96.2-58.2-223.7-24.5-225-24.2c-10.2,2.8-20.8-3.2-23.5-13.5c-2.8-10.2,3.2-20.8,13.5-23.5
	c1.5-0.4,36.7-9.8,85.3-11.2c27.4-0.9,54.9,1.2,81.9,6.4c32.5,6.4,62,17.6,87.7,33.2C386.1,267,389,278.8,383.5,287.9
	C383.5,287.8,383.5,287.9,383.5,287.9z M395.5,228.1c-4,0-8-1.1-11.5-3.2c-57.6-34.9-125.1-40.8-171.5-39.6
	c-51.5,1.3-89.5,11.4-89.8,11.5c-11.9,3.2-24.1-3.8-27.3-15.7c-3.2-11.9,3.8-24.1,15.7-27.3c1.7-0.5,42.6-11.4,99.1-13
	c31.9-1.1,63.8,1.4,95.1,7.5c37.7,7.5,72,20.4,101.9,38.5c10.5,6.4,13.9,20.1,7.5,30.6C410.5,224.1,403.3,228.2,395.5,228.1
	L395.5,228.1z"/>
</svg>
