<svg id="Layer_1" data-name="Layer 1" xmlns="http://www.w3.org/2000/svg" viewBox="0 0 500 500"><defs><style>.cls-1{fill:#fff;}</style></defs><path class="cls-1" d="M250,18.78C122.3,18.78,18.78,122.3,18.78,250S122.3,481.22,250,481.22,481.22,377.7,481.22,250,377.7,18.78,250,18.78ZM394.51,260.92a438.71,438.71,0,0,1-2.88,46.78s-2.82,19.9-11.49,28.68c-11,11.52-23.31,11.58-29,12.25-40.45,2.93-101.17,3-101.17,3s-75.15-.69-98.28-2.91c-6.43-1.21-20.87-.84-31.86-12.36-8.67-8.78-11.49-28.68-11.49-28.68a437.46,437.46,0,0,1-2.89-46.78V239a437.21,437.21,0,0,1,2.89-46.78s2.82-19.92,11.48-28.68c11-11.52,23.31-11.57,29-12.25,40.44-2.92,101.11-2.92,101.11-2.92h.13s60.68,0,101.11,2.92c5.65.68,18,.73,29,12.25,8.66,8.77,11.48,28.68,11.48,28.68A437.21,437.21,0,0,1,394.51,239Z"/><polygon class="cls-1" points="216.51 291.29 301.89 247.03 216.5 202.48 216.51 291.29"/></svg>