<svg id="Layer_1" data-name="Layer 1" xmlns="http://www.w3.org/2000/svg" viewBox="0 0 500 500"><defs><style>.cls-1{fill:#fff;}</style></defs><path class="cls-1" d="M250,19.54C122.72,19.54,19.54,122.72,19.54,250S122.72,480.46,250,480.46,480.46,377.28,480.46,250,377.28,19.54,250,19.54Zm103.33,86.78V320.37c0,24-25.18,39-45,39-15.61,0-38.41-7-38.41-30.18,0-.05,0-.09,0-.13s0-.08,0-.11c0-25.27,22.91-34,45.61-37.16,21.09-2.89,21.54-15.21,21.54-18.35V176a6.92,6.92,0,0,0-8.33-6.78L214.05,192.94a8.79,8.79,0,0,0-7,8.61V348.61c0,24-24.55,39-45,39-15.6,0-38.4-7-38.4-30.19v-.24c0-25.26,22.9-34,45.6-37.15,21.1-2.9,21.55-14.89,21.55-18.36V138.06a9.68,9.68,0,0,1,7.72-9.48L344,98.45a7.8,7.8,0,0,1,9.38,7.63Z"/></svg>