<?xml version="1.0" encoding="utf-8"?>
<!-- Generator: Adobe Illustrator 25.4.1, SVG Export Plug-In . SVG Version: 6.00 Build 0)  -->
<svg version="1.1" id="Layer_1" xmlns="http://www.w3.org/2000/svg" xmlns:xlink="http://www.w3.org/1999/xlink" x="0px" y="0px"
	 viewBox="0 0 500 500" style="enable-background:new 0 0 500 500;" xml:space="preserve">
<style type="text/css">
	.st0{fill:#F5C454;}
</style>
<path class="st0" d="M316.2,129.6H183.8c-29.9,0-54.2,24.3-54.2,54.2v132.5c0,29.9,24.3,54.2,54.2,54.2h132.5
	c29.9,0,54.2-24.3,54.2-54.2V183.8C370.4,153.9,346.1,129.6,316.2,129.6z M250,322.2c-39.9,0-72.2-32.4-72.2-72.3
	s32.4-72.2,72.3-72.2c39.9,0,72.2,32.4,72.2,72.2C322.2,289.9,289.9,322.2,250,322.2z M326.8,189.8c-9.1,0-16.6-7.4-16.6-16.6
	s7.4-16.6,16.6-16.6s16.6,7.4,16.6,16.6l0,0C343.3,182.4,335.9,189.8,326.8,189.8z"/>
<path class="st0" d="M250,201.8c-26.6,0-48.2,21.6-48.2,48.2s21.6,48.2,48.2,48.2c26.6,0,48.2-21.6,48.2-48.2
	C298.1,223.4,276.6,201.9,250,201.8z"/>
<path class="st0" d="M250,18.8C122.3,18.8,18.8,122.3,18.8,250S122.3,481.2,250,481.2S481.2,377.7,481.2,250S377.7,18.8,250,18.8z
	 M394.5,316.2c0,43.2-35.1,78.2-78.3,78.3H183.8c-43.2,0-78.2-35.1-78.3-78.3V183.8c0-43.2,35.1-78.2,78.3-78.3h132.5
	c43.2,0,78.2,35.1,78.3,78.3V316.2z"/>
</svg>
