<?xml version="1.0" encoding="utf-8"?>
<!-- Generator: Adobe Illustrator 25.4.1, SVG Export Plug-In . SVG Version: 6.00 Build 0)  -->
<svg version="1.1" id="Layer_1" xmlns="http://www.w3.org/2000/svg" xmlns:xlink="http://www.w3.org/1999/xlink" x="0px" y="0px"
	 viewBox="0 0 500 500" style="enable-background:new 0 0 500 500;" xml:space="preserve">
<style type="text/css">
	.st0{fill:#F5C454;}
</style>
<path class="st0" d="M250,18.8C122.3,18.8,18.8,122.3,18.8,250S122.3,481.2,250,481.2S481.2,377.7,481.2,250S377.7,18.8,250,18.8z
	 M394.5,260.9c-0.1,15.6-1.1,31.2-2.9,46.8c0,0-2.8,19.9-11.5,28.7c-11,11.5-23.3,11.6-29,12.2c-40.5,2.9-101.2,3-101.2,3
	s-75.2-0.7-98.3-2.9c-6.4-1.2-20.9-0.8-31.9-12.4c-8.7-8.8-11.5-28.7-11.5-28.7c-1.8-15.5-2.8-31.1-2.9-46.8V239
	c0.1-15.6,1.1-31.2,2.9-46.8c0,0,2.8-19.9,11.5-28.7c11-11.5,23.3-11.6,29-12.2c40.4-2.9,101.1-2.9,101.1-2.9h0.1
	c0,0,60.7,0,101.1,2.9c5.6,0.7,18,0.7,29,12.2c8.7,8.8,11.5,28.7,11.5,28.7c1.8,15.5,2.7,31.1,2.9,46.8V260.9z"/>
<polygon class="st0" points="216.5,291.3 301.9,247 216.5,202.5 "/>
</svg>
