<svg id="Layer_1" data-name="Layer 1" xmlns="http://www.w3.org/2000/svg" viewBox="0 0 500 500"><defs><style>.cls-1{fill:#fff;}</style></defs><path class="cls-1" d="M316.23,129.58H183.77a54.25,54.25,0,0,0-54.19,54.19V316.24a54.25,54.25,0,0,0,54.19,54.19H316.23a54.25,54.25,0,0,0,54.19-54.19V183.77A54.25,54.25,0,0,0,316.23,129.58ZM250,322.25A72.25,72.25,0,1,1,322.26,250,72.34,72.34,0,0,1,250,322.25Zm76.77-132.46a16.56,16.56,0,1,1,16.56-16.56A16.57,16.57,0,0,1,326.77,189.79Z"/><path class="cls-1" d="M250,201.83A48.17,48.17,0,1,0,298.17,250,48.23,48.23,0,0,0,250,201.83Z"/><path class="cls-1" d="M250,18.78C122.3,18.78,18.79,122.3,18.79,250S122.3,481.22,250,481.22,481.21,377.7,481.21,250,377.7,18.78,250,18.78ZM394.51,316.24a78.36,78.36,0,0,1-78.28,78.27H183.77a78.37,78.37,0,0,1-78.28-78.28V183.77a78.37,78.37,0,0,1,78.28-78.28H316.23a78.36,78.36,0,0,1,78.28,78.28Z"/></svg>