<svg id="Layer_1" data-name="Layer 1" xmlns="http://www.w3.org/2000/svg" viewBox="0 0 500 500"><defs><style>.cls-1{fill:#fff;}</style></defs><path class="cls-1" d="M250,18.78C122.3,18.78,18.78,122.3,18.78,250S122.3,481.22,250,481.22,481.22,377.7,481.22,250,377.7,18.78,250,18.78ZM363.12,192c.1,2.5.17,5,.17,7.55,0,77.14-58.71,166.09-166.08,166.09a165.25,165.25,0,0,1-89.48-26.23,117.82,117.82,0,0,0,86.42-24.16,58.45,58.45,0,0,1-54.53-40.55,58.55,58.55,0,0,0,26.36-1,58.4,58.4,0,0,1-46.82-57.24v-.74A58,58,0,0,0,145.61,223a58.44,58.44,0,0,1-18.07-77.93,165.76,165.76,0,0,0,120.32,61,58.48,58.48,0,0,1,56.87-71.68,58.27,58.27,0,0,1,42.6,18.44,116.82,116.82,0,0,0,37.07-14.17A58.51,58.51,0,0,1,358.74,171a116.69,116.69,0,0,0,33.53-9.19A118.06,118.06,0,0,1,363.12,192Z"/></svg>