<svg id="Layer_1" data-name="Layer 1" xmlns="http://www.w3.org/2000/svg" viewBox="0 0 500 500"><defs><style>.cls-1{fill:#fff;}</style></defs><path class="cls-1" d="M250,19.54C122.72,19.54,19.54,122.72,19.54,250S122.72,480.46,250,480.46,480.46,377.28,480.46,250,377.28,19.54,250,19.54ZM355.73,350.46a13.61,13.61,0,0,1-18.62,4.85c-85.57-50.18-198.77-21.17-199.9-20.88a13.6,13.6,0,0,1-6.94-26.31c1.28-.33,31.71-8.24,73.93-9.4,56.37-1.56,107.09,9.9,146.68,33.12A13.61,13.61,0,0,1,355.73,350.46Zm27.75-62.6a19.17,19.17,0,0,1-26.32,6.47c-96.21-58.25-223.7-24.52-225-24.17a19.17,19.17,0,0,1-10.07-37c1.47-.4,36.66-9.84,85.33-11.22a368.65,368.65,0,0,1,81.85,6.42c32.49,6.44,62,17.6,87.72,33.17A19.16,19.16,0,0,1,383.48,287.86Zm12-59.71A22.19,22.19,0,0,1,384,224.93C326.37,190,258.92,184.14,212.5,185.34,161,186.67,123,196.77,122.66,196.87a22.26,22.26,0,0,1-11.67-43c1.71-.47,42.58-11.44,99.11-13a428.83,428.83,0,0,1,95.07,7.46c37.74,7.48,72,20.44,101.89,38.52a22.27,22.27,0,0,1-11.55,41.31Z"/></svg>