<svg id="Layer_1" data-name="Layer 1" xmlns="http://www.w3.org/2000/svg" viewBox="0 0 500 500"><defs><style>.cls-1{fill:#fff;}</style></defs><path class="cls-1" d="M250,481.22Z"/><path class="cls-1" d="M250,18.78C122.3,18.78,18.78,122.3,18.78,250c0,122.61,95.45,222.91,216.09,230.71q-10.76-.7-21.24-2.37V311.46H153V250.92h60.6V195.05c0-56.36,33.28-89.56,83.55-89.56,24.08,0,49.76,5.63,49.76,5.63v61l-40.46,0c-27.33,0-32.44,13.55-32.44,32.61v46.16H344.1l-9.89,60.53H274.05V480a234.74,234.74,0,0,1-24,1.24c127.66,0,231.15-103.54,231.15-231.21S377.7,18.78,250,18.78Z"/><path class="cls-1" d="M236.82,480.83l2.72.14Z"/><path class="cls-1" d="M242.62,481.09l2.06.06Z"/></svg>