<?xml version="1.0" encoding="utf-8"?>
<!-- Generator: Adobe Illustrator 25.4.1, SVG Export Plug-In . SVG Version: 6.00 Build 0)  -->
<svg version="1.1" id="Layer_1" xmlns="http://www.w3.org/2000/svg" xmlns:xlink="http://www.w3.org/1999/xlink" x="0px" y="0px"
	 viewBox="0 0 500 500" style="enable-background:new 0 0 500 500;" xml:space="preserve">
<style type="text/css">
	.st0{fill:#F5C454;}
</style>
<path class="st0" d="M250,18.8C122.3,18.8,18.8,122.3,18.8,250S122.3,481.2,250,481.2S481.2,377.7,481.2,250S377.7,18.8,250,18.8z
	 M363.1,192c0.1,2.5,0.2,5,0.2,7.6c0,77.1-58.7,166.1-166.1,166.1c-31.7,0-62.8-9.1-89.5-26.2c30.9,3.7,61.9-5,86.4-24.2
	c-25-0.5-46.9-16.8-54.5-40.5c8.7,1.7,17.8,1.3,26.4-1c-27.2-5.5-46.8-29.5-46.8-57.2v-0.7c8.1,4.5,17.2,7,26.5,7.3
	c-25.6-17.1-33.6-51.3-18.1-77.9c29.6,36.5,73.4,58.6,120.3,61c-7.3-31.5,12.3-62.9,43.8-70.2c4.3-1,8.7-1.5,13.1-1.5
	c16.1,0,31.6,6.7,42.6,18.4c13.1-2.6,25.6-7.4,37.1-14.2c-4.3,13.5-13.5,25-25.7,32.3c11.6-1.4,22.9-4.5,33.5-9.2
	C384.4,173.5,374.6,183.8,363.1,192z"/>
</svg>
